<svg width="414" height="289" viewBox="0 0 414 289" fill="none" xmlns="http://www.w3.org/2000/svg">
<path d="M173.75 58.605V144.065C173.75 145.815 171.64 146.695 170.4 145.455L145.77 120.865C144.69 119.785 144.08 118.315 144.08 116.775V31.255C144.08 29.505 146.2 28.625 147.43 29.865L172.05 54.525C173.13 55.605 173.74 57.075 173.74 58.605H173.75ZM221.47 13.955L208.15 0.645C207.29 -0.215 205.89 -0.215 205.03 0.645L191.67 13.995C190.65 15.015 190.08 16.395 190.08 17.835V162.905C190.08 164.345 190.65 165.725 191.67 166.745L205.03 180.095C205.89 180.955 207.29 180.955 208.15 180.095L221.47 166.775C222.49 165.755 223.06 164.375 223.06 162.935V17.795C223.06 16.355 222.49 14.975 221.47 13.955ZM265.72 29.865L241.06 54.525C239.98 55.605 239.37 57.075 239.37 58.605V144.135C239.37 145.885 241.49 146.765 242.72 145.525L267.38 120.865C268.46 119.785 269.07 118.315 269.07 116.785V31.255C269.07 29.505 266.95 28.625 265.72 29.865Z" fill="url(#paint0_linear_1_5637)"/>
<path d="M0.0742188 239.744H19.174V288.74H30.2572V239.744H49.2665V228.74H0.0742188V239.744Z" fill="white"/>
<path d="M58.6243 228.823V288.74H69.6246V268.157H89.2895L106.619 288.74H118.613V285.906L103.703 268.157H106.95C113.362 268.157 118.613 262.904 118.613 256.573V240.407C118.613 234.076 113.362 228.823 106.95 228.823H58.6243ZM107.53 256.573C107.53 256.905 107.282 257.154 106.95 257.154H70.2047C69.8732 257.154 69.6246 256.905 69.6246 256.573V240.407C69.6246 240.075 69.8732 239.827 70.2047 239.827H106.95C107.282 239.827 107.53 240.075 107.53 240.407V256.573Z" fill="white"/>
<path d="M141.933 228.74H130.932V288.74H141.933V228.74Z" fill="white"/>
<path d="M202.57 228.74H154.251V288.74H202.57C208.981 288.74 214.233 283.57 214.233 277.156V240.324C214.233 233.91 208.981 228.74 202.57 228.74ZM203.157 277.156C203.157 277.488 202.909 277.736 202.577 277.736H165.839C165.508 277.736 165.259 277.488 165.259 277.156V240.324C165.259 239.992 165.508 239.744 165.839 239.744H202.577C202.909 239.744 203.157 239.992 203.157 240.324V277.156Z" fill="white"/>
<path d="M226.793 288.74H281.945V277.744H237.868V264.238H273.363V253.242H237.868V239.744H281.945V228.74H226.793V288.74Z" fill="white"/>
<path d="M343.501 272.74L306.598 228.74H294.595V288.74H305.596V244.741L342.59 288.74H354.584V228.74H343.501V272.74Z" fill="white"/>
<path d="M363.882 228.74V239.744H382.982V288.74H394.057V239.744H413.074V228.74H363.882Z" fill="white"/>
<defs>
<linearGradient id="paint0_linear_1_5637" x1="266.13" y1="12.875" x2="137.23" y2="146.865" gradientUnits="userSpaceOnUse">
<stop stop-color="#F300FF"/>
<stop offset="1" stop-color="#0000FF"/>
</linearGradient>
</defs>
</svg>
