<svg width="800" height="128" viewBox="0 0 800 128" fill="none" xmlns="http://www.w3.org/2000/svg">
<path d="M79.6149 72.6729L40.4375 128V95.9999L79.6149 72.6729Z" fill="#393939"/>
<path d="M79.6149 72.6729L40.4375 128V95.9999L79.6149 72.6729Z" fill="url(#paint0_linear_183_10194)"/>
<path d="M79.6149 72.6729L40.4375 128V95.9999L79.6149 72.6729Z" fill="#0000FF"/>
<path d="M1.26005 72.6729L40.4375 128V95.9999L1.26005 72.6729Z" fill="#393939"/>
<path d="M1.26005 72.6729L40.4375 128V95.9999L1.26005 72.6729Z" fill="#0000FF" fill-opacity="0.6"/>
<path d="M79.914 65.1961L40.4375 47.2522V0L79.914 65.1961Z" fill="#0000FF"/>
<path d="M79.914 65.1961L40.4375 47.2522V0L79.914 65.1961Z" fill="url(#paint1_linear_183_10194)"/>
<path d="M0.960983 65.1961L40.4375 47.2522V0L0.960983 65.1961Z" fill="#0000FF" fill-opacity="0.6"/>
<path d="M0.960983 65.1961L40.4375 47.2522V0L0.960983 65.1961Z" fill="url(#paint2_linear_183_10194)" fill-opacity="0.8"/>
<path d="M40.4296 47.2529V88.5238L0.953125 65.1968L40.4296 47.2529Z" fill="#393939"/>
<path d="M40.4296 47.2529V88.5238L0.953125 65.1968L40.4296 47.2529Z" fill="#5E01F5" fill-opacity="0.6"/>
<path d="M40.4375 47.2529V88.5238L79.9141 65.1968L40.4375 47.2529Z" fill="#393939"/>
<path d="M40.4375 47.2529V88.5238L79.9141 65.1968L40.4375 47.2529Z" fill="url(#paint3_linear_183_10194)"/>
<path d="M502.432 116.171C494.706 116.171 488.198 114.814 482.908 112.099C477.618 109.385 473.616 105.243 470.901 99.6748C468.256 94.1064 466.934 87.0067 466.934 78.3756V49.3503C466.934 40.7192 468.256 33.6195 470.901 28.0511C473.616 22.4827 477.618 18.3412 482.908 15.6266C488.198 12.912 494.706 11.5547 502.432 11.5547V22.8307C494.845 22.8307 489.138 25.0233 485.309 29.4084C481.551 33.7239 479.671 40.5104 479.671 49.7679V77.958C479.671 87.2155 481.551 94.002 485.309 98.3175C489.138 102.703 494.845 104.895 502.432 104.895V116.171Z" fill="white"/>
<path d="M516.051 101.308L506.445 28.2227H520.123L527.223 91.7026H529.102L538.29 28.2227H562.095L571.283 91.7026H573.162L580.262 28.2227H593.939L584.334 101.308H560.529L551.132 36.3665H549.253L539.856 101.308H516.051Z" fill="white"/>
<path d="M611.569 102.77C607.879 102.77 604.573 102.143 601.65 100.891C598.726 99.568 596.395 97.6887 594.654 95.2525C592.984 92.7467 592.149 89.7189 592.149 86.169C592.149 82.6192 592.984 79.6609 594.654 77.2944C596.395 74.8582 598.761 73.0485 601.754 71.8652C604.817 70.6123 608.297 69.9858 612.195 69.9858H626.394V67.0624C626.394 64.6262 625.629 62.6425 624.097 61.1112C622.566 59.5103 620.13 58.7098 616.789 58.7098C613.517 58.7098 611.081 59.4755 609.48 61.0068C607.879 62.4685 606.835 64.3826 606.348 66.7492L594.237 62.6773C595.072 60.0323 596.395 57.6309 598.204 55.4732C600.084 53.2458 602.555 51.4709 605.617 50.1484C608.75 48.7563 612.543 48.0602 616.998 48.0602C623.819 48.0602 629.213 49.7655 633.181 53.1762C637.148 56.5868 639.132 61.5288 639.132 68.0021V87.3175C639.132 89.4057 640.107 90.4497 642.056 90.4497H646.232V101.308H637.462C634.886 101.308 632.763 100.682 631.093 99.4288C629.422 98.1759 628.587 96.5054 628.587 94.4172V94.3128H626.603C626.325 95.1481 625.698 96.2618 624.724 97.6539C623.749 98.9764 622.218 100.16 620.13 101.204C618.042 102.248 615.188 102.77 611.569 102.77ZM613.866 92.1203C617.555 92.1203 620.548 91.111 622.845 89.0924C625.211 87.0043 626.394 84.2549 626.394 80.8442V79.8002H613.135C610.698 79.8002 608.784 80.3222 607.392 81.3663C606 82.4104 605.304 83.8721 605.304 85.7514C605.304 87.6307 606.035 89.1621 607.497 90.3453C608.958 91.5286 611.081 92.1203 613.866 92.1203Z" fill="white"/>
<path d="M652.105 101.308V28.2227H665.26V68.6285H667.139L684.262 49.5219H701.385L677.476 74.5798L702.22 101.308H685.306L667.139 80.7398H665.26V101.308H652.105Z" fill="white"/>
<path d="M726.479 102.77C721.328 102.77 716.769 101.691 712.801 99.5332C708.904 97.3059 705.841 94.2084 703.614 90.2409C701.456 86.2038 700.377 81.4707 700.377 76.0415V74.7886C700.377 69.3594 701.456 64.661 703.614 60.6935C705.771 56.6564 708.799 53.559 712.697 51.4013C716.595 49.1739 721.119 48.0602 726.27 48.0602C731.351 48.0602 735.771 49.2087 739.53 51.5057C743.289 53.733 746.212 56.8653 748.3 60.9024C750.388 64.8699 751.432 69.4986 751.432 74.7886V79.2781H713.741C713.88 82.828 715.203 85.7166 717.709 87.944C720.214 90.1713 723.277 91.285 726.897 91.285C730.586 91.285 733.3 90.4846 735.04 88.8836C736.78 87.2827 738.103 85.5078 739.008 83.5588L749.762 89.1969C748.787 91.0066 747.36 92.9903 745.481 95.1481C743.671 97.2362 741.235 99.046 738.173 100.577C735.11 102.039 731.212 102.77 726.479 102.77ZM713.846 69.4638H738.068C737.79 66.4708 736.572 64.0694 734.414 62.2597C732.326 60.4499 729.576 59.5451 726.166 59.5451C722.616 59.5451 719.797 60.4499 717.709 62.2597C715.62 64.0694 714.333 66.4708 713.846 69.4638Z" fill="white"/>
<path d="M753.794 116.171V104.895C761.45 104.895 767.158 102.703 770.917 98.3175C774.675 94.002 776.555 87.2155 776.555 77.958V49.7679C776.555 40.5104 774.675 33.7239 770.917 29.4084C767.158 25.0233 761.45 22.8307 753.794 22.8307V11.5547C761.59 11.5547 768.098 12.912 773.318 15.6266C778.608 18.3412 782.575 22.4827 785.22 28.0511C787.935 33.6195 789.292 40.7192 789.292 49.3503V78.3756C789.292 87.0067 787.935 94.1064 785.22 99.6748C782.575 105.243 778.608 109.385 773.318 112.099C768.098 114.814 761.59 116.171 753.794 116.171Z" fill="white"/>
<path d="M130.095 102.873C124.457 102.873 119.48 101.864 115.165 99.8453C110.849 97.8267 107.473 94.9381 105.037 91.1794C102.601 87.4207 101.383 82.8964 101.383 77.6064V74.683H114.956V77.6064C114.956 81.9915 116.313 85.2978 119.028 87.5252C121.742 89.6829 125.431 90.7618 130.095 90.7618C134.828 90.7618 138.343 89.8221 140.64 87.9428C143.007 86.0634 144.19 83.6621 144.19 80.7386C144.19 78.7201 143.598 77.0844 142.415 75.8315C141.301 74.5786 139.631 73.5693 137.403 72.8037C135.246 71.9684 132.601 71.2027 129.468 70.5067L127.067 69.9846C122.056 68.871 117.74 67.4789 114.121 65.8083C110.571 64.0682 107.821 61.806 105.872 59.0218C103.993 56.2376 103.053 52.6182 103.053 48.1634C103.053 43.7087 104.097 39.9152 106.186 36.783C108.343 33.5812 111.336 31.145 115.165 29.4745C119.063 27.7343 123.622 26.8643 128.842 26.8643C134.062 26.8643 138.691 27.7691 142.728 29.5789C146.835 31.319 150.037 33.964 152.334 37.5138C154.7 40.9941 155.884 45.3792 155.884 50.6692V53.8015H142.311V50.6692C142.311 47.885 141.754 45.6577 140.64 43.9871C139.596 42.247 138.065 40.9941 136.046 40.2284C134.028 39.3932 131.626 38.9756 128.842 38.9756C124.666 38.9756 121.568 39.776 119.55 41.3769C117.601 42.9082 116.626 45.0312 116.626 47.7458C116.626 49.5555 117.079 51.0869 117.984 52.3397C118.958 53.5926 120.385 54.6367 122.264 55.472C124.144 56.3072 126.545 57.0381 129.468 57.6645L131.87 58.1866C137.09 59.3003 141.615 60.7272 145.443 62.4673C149.341 64.2074 152.369 66.5044 154.526 69.3582C156.684 72.212 157.763 75.8663 157.763 80.321C157.763 84.7757 156.615 88.7084 154.318 92.1191C152.09 95.4601 148.888 98.1051 144.712 100.054C140.605 101.933 135.733 102.873 130.095 102.873Z" fill="white"/>
<path d="M188.105 102.873C182.954 102.873 178.325 101.829 174.219 99.7409C170.112 97.6527 166.875 94.6249 164.509 90.6574C162.142 86.6899 160.959 81.9219 160.959 76.3535V74.683C160.959 69.1146 162.142 64.3466 164.509 60.3791C166.875 56.4116 170.112 53.3838 174.219 51.2957C178.325 49.2075 182.954 48.1634 188.105 48.1634C193.256 48.1634 197.884 49.2075 201.991 51.2957C206.098 53.3838 209.334 56.4116 211.701 60.3791C214.068 64.3466 215.251 69.1146 215.251 74.683V76.3535C215.251 81.9219 214.068 86.6899 211.701 90.6574C209.334 94.6249 206.098 97.6527 201.991 99.7409C197.884 101.829 193.256 102.873 188.105 102.873ZM188.105 91.1794C192.142 91.1794 195.483 89.8917 198.128 87.3163C200.773 84.6713 202.096 80.9127 202.096 76.0403V74.9962C202.096 70.1239 200.773 66.4 198.128 63.8246C195.553 61.1796 192.212 59.8571 188.105 59.8571C184.068 59.8571 180.727 61.1796 178.082 63.8246C175.437 66.4 174.114 70.1239 174.114 74.9962V76.0403C174.114 80.9127 175.437 84.6713 178.082 87.3163C180.727 89.8917 184.068 91.1794 188.105 91.1794Z" fill="white"/>
<path d="M220.735 101.411V28.326H233.89V101.411H220.735Z" fill="white"/>
<path d="M240.144 101.411V49.6251H253.299V101.411H240.144ZM246.722 43.5695C244.355 43.5695 242.337 42.8038 240.666 41.2725C239.065 39.7412 238.265 37.7227 238.265 35.2169C238.265 32.7111 239.065 30.6925 240.666 29.1612C242.337 27.6299 244.355 26.8643 246.722 26.8643C249.158 26.8643 251.177 27.6299 252.777 29.1612C254.378 30.6925 255.179 32.7111 255.179 35.2169C255.179 37.7227 254.378 39.7412 252.777 41.2725C251.177 42.8038 249.158 43.5695 246.722 43.5695Z" fill="white"/>
<path d="M281.267 102.873C277.161 102.873 273.298 101.864 269.678 99.8453C266.128 97.7571 263.274 94.7293 261.117 90.7618C258.959 86.7943 257.88 81.9915 257.88 76.3535V74.683C257.88 69.045 258.959 64.2422 261.117 60.2747C263.274 56.3072 266.128 53.3142 269.678 51.2957C273.228 49.2075 277.091 48.1634 281.267 48.1634C284.4 48.1634 287.01 48.5463 289.098 49.3119C291.256 50.008 292.996 50.9128 294.318 52.0265C295.641 53.1402 296.65 54.3235 297.346 55.5764H299.225V28.326H312.381V101.411H299.434V95.1469H297.555C296.372 97.0959 294.527 98.8708 292.021 100.472C289.585 102.073 286 102.873 281.267 102.873ZM285.235 91.3882C289.272 91.3882 292.648 90.1005 295.362 87.5252C298.077 84.8802 299.434 81.0519 299.434 76.0403V74.9962C299.434 69.9846 298.077 66.1912 295.362 63.6158C292.717 60.9708 289.342 59.6483 285.235 59.6483C281.198 59.6483 277.822 60.9708 275.107 63.6158C272.393 66.1912 271.035 69.9846 271.035 74.9962V76.0403C271.035 81.0519 272.393 84.8802 275.107 87.5252C277.822 90.1005 281.198 91.3882 285.235 91.3882Z" fill="white"/>
<path d="M318.642 101.411V49.6251H331.797V101.411H318.642ZM325.22 43.5695C322.853 43.5695 320.835 42.8038 319.164 41.2725C317.563 39.7412 316.763 37.7227 316.763 35.2169C316.763 32.7111 317.563 30.6925 319.164 29.1612C320.835 27.6299 322.853 26.8643 325.22 26.8643C327.656 26.8643 329.674 27.6299 331.275 29.1612C332.876 30.6925 333.677 32.7111 333.677 35.2169C333.677 37.7227 332.876 39.7412 331.275 41.2725C329.674 42.8038 327.656 43.5695 325.22 43.5695Z" fill="white"/>
<path d="M361.218 101.411C357.808 101.411 355.024 100.367 352.866 98.2792C350.778 96.1214 349.734 93.2676 349.734 89.7177V60.4836H336.787V49.6251H349.734V33.5464H362.889V49.6251H377.088V60.4836H362.889V87.4207C362.889 89.5089 363.863 90.553 365.812 90.553H375.836V101.411H361.218Z" fill="white"/>
<path d="M387.975 122.293V110.808H416.165C418.114 110.808 419.089 109.764 419.089 107.676V94.6249H417.21C416.653 95.8082 415.783 96.9914 414.599 98.1747C413.416 99.358 411.815 100.333 409.797 101.098C407.778 101.864 405.203 102.247 402.07 102.247C398.033 102.247 394.483 101.342 391.421 99.532C388.428 97.6527 386.096 95.0773 384.426 91.8059C382.755 88.5344 381.92 84.7757 381.92 80.5298V49.6251H395.075V79.4858C395.075 83.3836 396.015 86.3071 397.894 88.256C399.843 90.205 402.592 91.1794 406.142 91.1794C410.179 91.1794 413.312 89.8569 415.539 87.2119C417.766 84.4973 418.88 80.7386 418.88 75.9359V49.6251H432.035V110.599C432.035 114.149 430.991 116.968 428.903 119.056C426.815 121.214 424.031 122.293 420.551 122.293H387.975Z" fill="white"/>
<defs>
<linearGradient id="paint0_linear_183_10194" x1="79.6149" y1="72.6729" x2="40.4375" y2="128" gradientUnits="userSpaceOnUse">
<stop stop-color="#6A00B7"/>
<stop offset="1" stop-color="#FF00FF"/>
</linearGradient>
<linearGradient id="paint1_linear_183_10194" x1="40.4375" y1="0" x2="45.8628" y2="67.9161" gradientUnits="userSpaceOnUse">
<stop stop-color="#FE81FF"/>
<stop offset="1" stop-color="#B300B3"/>
</linearGradient>
<linearGradient id="paint2_linear_183_10194" x1="40.4375" y1="0" x2="11.2678" y2="69.5206" gradientUnits="userSpaceOnUse">
<stop stop-color="#FF00FF"/>
<stop offset="1" stop-color="#6A00B7"/>
</linearGradient>
<linearGradient id="paint3_linear_183_10194" x1="60.1758" y1="85.5332" x2="52.1271" y2="44.9354" gradientUnits="userSpaceOnUse">
<stop stop-color="#0000FF" stop-opacity="0.8"/>
<stop offset="1" stop-color="#9D01FF"/>
</linearGradient>
</defs>
</svg>
